<?xml version="1.0" encoding="utf-8"?>
<!-- Generator: Adobe Illustrator 22.0.1, SVG Export Plug-In . SVG Version: 6.00 Build 0)  -->
<svg version="1.1" id="圖層_1" xmlns="http://www.w3.org/2000/svg" xmlns:xlink="http://www.w3.org/1999/xlink" x="0px" y="0px"
	 viewBox="0 0 512 512" style="enable-background:new 0 0 512 512;" xml:space="preserve">
<style type="text/css">
	.st0{fill:none;}
</style>
<path d="M88.3,233.2c0-22.7-0.4-45.6,0.1-68.5C89.8,86.5,142.5,22.2,218,6.2c94.9-20,187.4,49.7,193.3,146.5
	c1.6,26.7,0.2,53.6,0.2,81c5.9,0.5,9.6,1,13.3,1.2c18.9,1.1,31.3,12.3,33.3,31.1c0.9,8.6,0.6,17.3,0.6,25.9
	c0,59.1,0.1,118.1,0,177.2c0,31-11.9,42.9-42.4,42.9c-110.9,0-221.9,0-332.8,0c-28.6,0-41.4-12.6-41.5-41C42,409.5,42,348,42,286.5
	C42,245.8,47.4,239.4,88.3,233.2z M158.7,233.8c61.4,0,122.5,0,184,0c0-26.9,2-52.9-0.4-78.5c-4.5-47.6-42.2-81.5-89.3-83.3
	c-45.7-1.7-87.6,31.5-93.6,78.4C155.8,177.6,158.7,205.6,158.7,233.8z M229,369c-4,13.5-7.8,26.3-11.6,39.1
	c-3.8,12.8-7.8,25.6-11.5,38.5c-3.9,13.6-0.2,19.1,13.5,19.3c20.6,0.3,41.2,0.3,61.8,0c13.9-0.2,17.9-5.5,14-19.1
	c-6.2-21.6-12.6-43.1-19.7-64.4c-3-9.2-2.3-14.7,6.1-21.6c20.1-16.6,20.5-46.5,2.8-65.4c-18.1-19.2-48.1-19.6-66.8-0.8
	C195.6,316.6,199.8,346.3,229,369z"/>
</svg>
