<?xml version="1.0" encoding="utf-8"?>
<!-- Generator: Adobe Illustrator 22.0.1, SVG Export Plug-In . SVG Version: 6.00 Build 0)  -->
<svg version="1.0" xmlns="http://www.w3.org/2000/svg" xmlns:xlink="http://www.w3.org/1999/xlink" x="0px" y="0px"
	 viewBox="0 0 512 423.6" style="enable-background:new 0 0 512 423.6;" xml:space="preserve">
<style type="text/css">
	.st0{fill:#282828;}
	.st1{fill:#F3CF0D;}
</style>
<g id="圖層_1">
	<path class="st0" d="M504,402.3c-78.5-128.6-157.3-257-235.4-385.8c-10.2-16.8-15.8-14.3-24.8,0.6
		C165.5,145.9,86.8,274.3,8.3,402.9c-11.8,19.3-10.5,21.6,11.9,21.7c78.9,0.1,157.8,0,236.7,0.1c78.1,0,156.2,0.1,234.3,0
		C515.7,424.6,516.6,423,504,402.3z M20.3,409.7C99.1,280.5,176.7,153.5,256.3,23c79.3,129.8,157,257.1,236.2,386.7
		C334.2,409.7,178.6,409.7,20.3,409.7z"/>
	<path class="st1" d="M234.9,181.5c0.8,40.9,1.1,81.9,0.8,122.8c-0.1,15.5,8.5,17,20.7,17.5c13.1,0.5,17.5-4.8,17.9-17.4
		c1.3-37.8,3.5-75.5,5.3-113.3c0.2,0,0.4,0,0.6,0c0-3.1-0.2-6.2,0-9.3c1.6-22.6-14.6-17.9-28-19.3
		C236.6,161,234.7,168.6,234.9,181.5z"/>
	<circle class="st1" cx="257.7" cy="368.3" r="23.5"/>
</g>
<g id="圖層_2">
</g>
</svg>
